<svg class="animated" id="freepik_stories-passing-by" xmlns="http://www.w3.org/2000/svg" viewBox="0 0 500 500" version="1.1" xmlns:xlink="http://www.w3.org/1999/xlink" xmlns:svgjs="http://svgjs.com/svgjs"><style>svg#freepik_stories-passing-by:not(.animated) .animable {opacity: 0;}svg#freepik_stories-passing-by.animated #freepik--Characters--inject-30 {animation: 1s 1 forwards cubic-bezier(.36,-0.01,.5,1.38) fadeIn;animation-delay: 0s;}            @keyframes fadeIn {                0% {                    opacity: 0;                }                100% {                    opacity: 1;                }            }        .animator-hidden { display: none; }</style><g id="freepik--Floor--inject-30" class="animable animator-hidden" style="transform-origin: 249.999px 361.427px;"><path d="M117.8,430.49c73,38.14,191.39,38.14,264.41,0s73-100,0-138.13-191.4-38.14-264.42,0S44.78,392.35,117.8,430.49Z" style="fill: rgb(240, 240, 240); transform-origin: 249.999px 361.427px;" id="elqgb6wc94tle" class="animable"></path></g><g id="freepik--Cloud--inject-30" class="animable animator-hidden" style="transform-origin: 361.25px 101.116px;"><path d="M329.49,83.82,335.12,86V73.58c0-9.83,7.85-12.19,16.36-7.27h0C360,71.22,366.9,83.18,366.9,93v1.8c1.93-.77,4.43-.48,7.16,1.1h0c6.13,3.54,11.1,12.14,11.1,19.22V116l7.85,4.53a16.18,16.18,0,0,1,7.31,12.66c0,4.66-3.28,6.55-7.31,4.22L329.49,100.7A16.18,16.18,0,0,1,322.18,88C322.18,83.38,325.46,81.49,329.49,83.82Z" style="fill: rgb(240, 240, 240); transform-origin: 361.25px 101.116px;" id="el7ai910tao85" class="animable"></path></g><g id="freepik--street-light--inject-30" class="animable animator-hidden" style="transform-origin: 99.5769px 185.205px;"><rect x="95.43" y="95.55" width="8.28" height="220.17" style="fill: rgb(230, 230, 230); transform-origin: 99.57px 205.635px;" id="elflo2zeigq7i" class="animable"></rect><path d="M93,84.74c-3.63,2.1-3.63,5.49,0,7.59a14.51,14.51,0,0,0,13.15,0c3.63-2.1,3.63-5.49,0-7.59A14.51,14.51,0,0,0,93,84.74Z" style="fill: rgb(224, 224, 224); transform-origin: 99.575px 88.535px;" id="elrg4jp1okq1q" class="animable"></path><path d="M93.48,88c-3.36,1.94-3.36,5.09,0,7a13.43,13.43,0,0,0,12.19,0c3.36-1.94,3.36-5.09,0-7A13.49,13.49,0,0,0,93.48,88Z" style="fill: rgb(224, 224, 224); transform-origin: 99.575px 91.5036px;" id="eleb24160orqa" class="animable"></path><polygon points="108.79 89.21 90.36 89.21 91.08 92.36 108.07 92.36 108.79 89.21" style="fill: rgb(224, 224, 224); transform-origin: 99.575px 90.785px;" id="el9idbfigkz2s" class="animable"></polygon><path d="M112.88,70.54H86.28l4.08,18.67h0A5.08,5.08,0,0,0,93,92.33a14.51,14.51,0,0,0,13.15,0,5.08,5.08,0,0,0,2.64-3.12h0S112.76,70.69,112.88,70.54Z" style="fill: rgb(230, 230, 230); transform-origin: 99.58px 82.2226px;" id="el1ljxk9wvibc" class="animable"></path><path d="M113.84,68.35c0-.08,0-.17,0-.25l.67-3.76h-1.64a9.68,9.68,0,0,0-3.19-2.8c-5.61-3.24-14.7-3.24-20.32,0a9.74,9.74,0,0,0-3.18,2.8H84.59l.67,3.76c0,.08,0,.17,0,.25l0,.24h0a7.9,7.9,0,0,0,4,4.69c5.62,3.24,14.71,3.24,20.32,0a7.89,7.89,0,0,0,4-4.69h0Z" style="fill: rgb(224, 224, 224); transform-origin: 99.55px 67.41px;" id="eldjjphrvwzwd" class="animable"></path><path d="M88.91,57.24c-5.88,3.4-5.88,8.91,0,12.31s15.44,3.4,21.33,0,5.88-8.91,0-12.31S94.8,53.84,88.91,57.24Z" style="fill: rgb(230, 230, 230); transform-origin: 99.5769px 63.395px;" id="elk3q02c8pfh" class="animable"></path><polygon points="107 73.16 104.19 93.9 103.05 94.18 104.79 73.16 107 73.16" style="fill: rgb(224, 224, 224); transform-origin: 105.025px 83.67px;" id="el5d1r53egpuu" class="animable"></polygon><polygon points="92.11 73.16 94.92 93.9 96.07 94.18 94.32 73.16 92.11 73.16" style="fill: rgb(224, 224, 224); transform-origin: 94.09px 83.67px;" id="el5759nzx53xg" class="animable"></polygon></g><g id="freepik--Plants--inject-30" class="animable animator-hidden" style="transform-origin: 107.699px 297.678px;"><path d="M122.35,337.25l10.53-6s12.7-28.42,10.45-52.53c-2.8-30-16.94-40.49-25.26-37.15s-6.59,15.28,2.21,31.29C127.27,285.53,131.7,319.5,122.35,337.25Z" style="fill: #F58F00; transform-origin: 128.134px 289.112px;" id="el477musecfy" class="animable"></path><g id="eli9kcbqd0swe"><path d="M122.35,337.25l10.53-6s12.7-28.42,10.45-52.53c-2.8-30-16.94-40.49-25.26-37.15s-6.59,15.28,2.21,31.29C127.27,285.53,131.7,319.5,122.35,337.25Z" style="opacity: 0.2; transform-origin: 128.134px 289.112px;" class="animable" id="elkxhkgopa4m"></path></g><path d="M129.24,333.91a.66.66,0,0,1-.23,0,.61.61,0,0,1-.32-.79c12.72-30.72,9.19-71.3-7.71-88.61a.6.6,0,0,1,0-.85.59.59,0,0,1,.84,0c17.2,17.62,20.85,58.8,8,89.91A.61.61,0,0,1,129.24,333.91Z" style="fill: rgb(255, 255, 255); transform-origin: 129.157px 288.702px;" id="elhl9bff35t68" class="animable"></path><path d="M93.15,354.12c-1.67,1-5.09-1.13-6.41-2a15.92,15.92,0,0,1-5.28-6.06,15,15,0,0,1-1.32-8.94,35.63,35.63,0,0,1,1.13-4.75c.44-1.53.89-3.07,1.33-4.61a11.78,11.78,0,0,0,.67-4.65c-.4-3.15-3.2-5.36-5.75-7.27-2.81-2.11-5.74-4.89-5.72-8.69,0-2.92,1.53-5.65,3.34-7.94s4-4.33,5.61-6.76a9.35,9.35,0,0,0,1.91-5.9,9.79,9.79,0,0,0-1.28-3.69c-1.34-2.47-3.11-4.73-4-7.39s-.79-6,1.28-7.86c1.7-1.56,4.23-1.78,6.54-1.63a15.19,15.19,0,0,1,6.07,2.14c6,3.35,9.47,10.49,15.87,13.07,2.46,1,5.17,1.22,7.74,1.9s5.19,2,6.38,4.37c2.35,4.69-2,10.47-.36,15.44,1.47,4.41,5.75,6.1,8.15,10.07a9.39,9.39,0,0,1,1.12,5.76,27.36,27.36,0,0,1-2.43,9.75,68.13,68.13,0,0,1-5.35,8.78C122.25,337.35,93.4,354,93.15,354.12Z" style="fill: #F58F00; transform-origin: 101.022px 310.161px;" id="elgex89x18izh" class="animable"></path><path d="M110.38,344.76h-.08a.6.6,0,0,1-.52-.67c3.06-24.26-8.51-57-25.79-72.92a.6.6,0,0,1,.81-.88c17.54,16.18,29.27,49.36,26.17,73.95A.59.59,0,0,1,110.38,344.76Z" style="fill: rgb(255, 255, 255); transform-origin: 97.6488px 307.462px;" id="eldlulicuqsq" class="animable"></path><path d="M107.38,313.28a.6.6,0,0,1-.36-.12c-9.3-7-24.09-5.71-24.24-5.7a.59.59,0,0,1-.65-.54.6.6,0,0,1,.54-.65c.63-.06,15.4-1.33,25.07,5.93a.6.6,0,0,1,.12.84A.63.63,0,0,1,107.38,313.28Z" style="fill: rgb(255, 255, 255); transform-origin: 95.0538px 309.714px;" id="elg8hdfo5w7d" class="animable"></path><path d="M105.92,307.24h0a.59.59,0,0,1-.57-.62c.46-11.87,9.15-18.8,9.52-19.09a.6.6,0,0,1,.74,1c-.09.06-8.62,6.89-9.06,18.19A.6.6,0,0,1,105.92,307.24Z" style="fill: rgb(255, 255, 255); transform-origin: 110.606px 297.325px;" id="eljiq9iphg1t" class="animable"></path></g><g id="freepik--Shadows--inject-30" class="animable" style="transform-origin: 280.077px 366.62px;"><ellipse cx="244.32" cy="366.62" rx="92.19" ry="43.94" style="fill: rgb(230, 230, 230); transform-origin: 244.32px 366.62px;" id="el4efhrgbnfd2" class="animable"></ellipse><path d="M343.42,383.84c14.78,7,38.74,7,53.52,0s14.78-18.47,0-25.51-38.74-7.05-53.52,0S328.63,376.79,343.42,383.84Z" style="fill: rgb(230, 230, 230); transform-origin: 370.178px 371.068px;" id="el2v1s4qu22aj" class="animable"></path></g><g id="freepik--Characters--inject-30" class="animable" style="transform-origin: 292.765px 255.791px;"><path d="M167.52,348.16c-1.61-.83-2.63,1.21-4.09,2.85-1,1.15-2.61,3-2.85,4.27-.35,1.93,1.4,5,3.33,6.66s4.17,2.88,4.88,6.57,2.13,5.87,5.94,7.51c4.19,1.81,9.79,1.23,11.69,0,2.25-1.45.19-3-3-7.56-4.12-5.89-7.32-10.1-7.32-15.59Z" style="fill: rgb(38, 50, 56); transform-origin: 173.951px 362.569px;" id="eltaii6n33r7m" class="animable"></path><path d="M170,343l-2.58,5.3a4.75,4.75,0,0,0,1.14,6.6l.1.07a5.11,5.11,0,0,0,6.47-1l4.53-6.13Z" style="fill: rgb(255, 168, 167); transform-origin: 173.11px 349.351px;" id="elvhgwn9z49u" class="animable"></path><path d="M199.45,237a159.17,159.17,0,0,0-1.73,26.13c0,10.91-1.64,38.27-1.64,38.27a26.28,26.28,0,0,0-10,9.57c-4.24,6.87-17.48,34.35-17.48,34.35s3.58,5,9.44,5.15c0,0,27.46-34.41,31.86-40.23s14.61-48.51,14.61-48.51Z" style="fill: rgb(69, 90, 100); transform-origin: 196.555px 293.735px;" id="elprwx3pwankp" class="animable"></path><polygon points="231.21 360.56 239.69 359.72 238.35 346.29 229.13 347.21 231.21 360.56" style="fill: rgb(255, 168, 167); transform-origin: 234.41px 353.425px;" id="elbqwj7sowv6j" class="animable"></polygon><path d="M239.24,355.17l-.14-1.32c.92.3,4.11,7.48,7.74,10.89,4,3.73,7.54,6.08,9.31,7.76,2.38,2.25-1.9,5.7-8.38,5.25-3.21-.23-8.9-1.93-10.48-3.86s-2-4.59-3.24-6-3.74-2.66-4.52-4.35c-.42-.92-.19-3.5-.2-5.35,0-2.36.34-3.51,1-3.52,0,.2.17,1.17.17,1.17a6.2,6.2,0,0,0,3.95,2.24C235.93,358.21,239.67,357.78,239.24,355.17Z" style="fill: rgb(38, 50, 56); transform-origin: 243.046px 365.82px;" id="elih0ud4i33t" class="animable"></path><path d="M241.61,237,238.94,348.9s-2.78,2.83-9.81,1c0,0-7.12-29.69-7.53-36.79a53.67,53.67,0,0,1,1.67-14.72l-2.77-25.17L199.45,237Z" style="fill: rgb(69, 90, 100); transform-origin: 220.53px 293.758px;" id="eltwsyecyinxa" class="animable"></path><path d="M220.78,275.8c0-.25,4.79-17.75,4.79-17.75s9.37-1.58,12.53-3.8c0,0-5.34,5-10.44,5.89l-5.37,16.2.21,15.1Z" style="fill: rgb(55, 71, 79); transform-origin: 229.44px 272.845px;" id="el3iyu95ciglm" class="animable"></path><path d="M237.59,217.68c-2.81-14.08-.94-26-.66-33,0-1.25,2.27,1.54,2.87,2.64l4,11s1.9,12.68,3.68,21.09c1.45,6.86,4.59,15.59,6.66,21.12,1.08,2.86,3,5.37,4,8.31a35.18,35.18,0,0,1,1.94,9.3c.14,2-.22,3.85-2.49,3.52a8,8,0,0,1-3.5-1.23c-3.3-2.18-5.19-6.29-6.69-9.79-1.11-2.6-3.9-7.62-4.78-11.1C240.33,230.48,238.69,223.22,237.59,217.68Z" style="fill: rgb(255, 168, 167); transform-origin: 248.084px 223.031px;" id="elmii20ogvn5" class="animable"></path><path d="M227.66,179.86c6.45.07,12.79,1.52,15,8.38,2.13,6.7,4.88,26.15,4.88,26.15s-2.71,3.6-11.75,3Z" style="fill: #F58F00; transform-origin: 237.6px 198.659px;" id="elj18428fnkgs" class="animable"></path><g id="elrvlurz5v9ep"><path d="M227.66,179.86c6.45.07,12.79,1.52,15,8.38,2.13,6.7,4.88,26.15,4.88,26.15s-2.71,3.6-11.75,3Z" style="opacity: 0.2; transform-origin: 237.6px 198.659px;" class="animable" id="elgvlm1nlvu5t"></path></g><path d="M183.92,224.2c3.43-18.36,11.32-31.33,12.55-35.92l3.42,23.41a167.91,167.91,0,0,0-6.15,18.06C192,236.56,190,245.13,189.91,251a4.35,4.35,0,0,0,1.05,2.85c1.83,2.13,2.28,3.87,3.43,6.2.9,1.82,1.93,2.53,1.61,2.92a2.31,2.31,0,0,1-3.14.11,16.55,16.55,0,0,1-2.67-2.76,21.66,21.66,0,0,0,1.52,6.71c1.95,4.9,1.34,7.34-5.1,5.37-4-1.23-6.47-4.72-6.71-14.54a77,77,0,0,1,.31-10.85C181.43,237.78,182.88,229.76,183.92,224.2Z" style="fill: rgb(255, 168, 167); transform-origin: 189.861px 230.682px;" id="eli1xl6cit7e9" class="animable"></path><path d="M214.42,180.25c-7.69,1.85-17.4,3.12-21.56,10.95-4.7,8.84-9.47,26.59-9.47,26.59,2.4,2.82,10.43,5.29,14.44,4.07l3.76-10.7L199.45,237c6,6.54,29,9.59,42.16,0v-41.8c0-6.68-3.71-14.7-14-15.3Z" style="fill: #F58F00; transform-origin: 212.5px 211.501px;" id="eltw1u7j1c4l" class="animable"></path><polygon points="201.59 211.16 207.27 202.12 200.9 219.4 201.59 211.16" style="fill: #F58F00; transform-origin: 204.085px 210.76px;" id="eljt0dsop9aq8" class="animable"></polygon><g id="elret25xuryq"><polygon points="201.59 211.16 207.27 202.12 200.9 219.4 201.59 211.16" style="opacity: 0.2; transform-origin: 204.085px 210.76px;" class="animable" id="el8m20s5c92mo"></polygon></g><path d="M207.27,157l2.84,11.22a5.42,5.42,0,0,0,5.25,4.09h3.33V156.67Z" style="fill: rgb(38, 50, 56); transform-origin: 212.98px 164.49px;" id="elq2s2mu24pj" class="animable"></path><path d="M242.12,152.9a12,12,0,1,1-12-12A12,12,0,0,1,242.12,152.9Z" style="fill: rgb(38, 50, 56); transform-origin: 230.12px 152.9px;" id="ell3gs4a0u5qe" class="animable"></path><path d="M211.53,146.07a4.54,4.54,0,0,0-3.78,1.33c-1.62,1.66-1.29,4.73,0,11.79l5,.58Z" style="fill: rgb(38, 50, 56); transform-origin: 209.703px 152.904px;" id="elcj6x7o6iv8" class="animable"></path><path d="M213.88,159.77c-.74.45-1.8-1-2.72-1.94s-3.92-2.28-5.42.87.86,7.46,3.15,8.4a3.5,3.5,0,0,0,4.63-1.47l.9,14.62a13.09,13.09,0,0,0,9.88,7.5c7.21,1,5.73-5,3.36-7.89v-4.47a22.37,22.37,0,0,0,5.48.29c2.64-.5,3.93-2.94,5.17-6.07,1.85-4.66,3-11.27,1.39-19.64-2.12-11.09-14.4-11.33-21.45-6.9S213.88,159.77,213.88,159.77Z" style="fill: rgb(255, 168, 167); transform-origin: 222.867px 164.122px;" id="el9d52pvyvpxj" class="animable"></path><path d="M213.88,161c-.37,0-1.8-2.36-2.72-3.2-1.29-1.17.37-11.76.37-11.76.65-8.68,13.45-9.34,17-9.59,8.11-.59,13.63,3.9,11.42,9.55-1.46,2.57-4.46,3.28-7.27,3.62-4.77.58-12.89-2-13.91-2.12-1.38-.19-1.67,1.15-2.42,4.81C215.69,155.56,215.14,161,213.88,161Z" style="fill: rgb(38, 50, 56); transform-origin: 225.555px 148.699px;" id="elusqmmk6jfp" class="animable"></path><path d="M211.54,146.89,207,144.47a2.49,2.49,0,0,1,3.41-1.13A2.69,2.69,0,0,1,211.54,146.89Z" style="fill: rgb(38, 50, 56); transform-origin: 209.408px 144.971px;" id="elniqiqxmkq3" class="animable"></path><path d="M227.65,175.39s-6.69-1.34-9-2.58a7.7,7.7,0,0,1-3.23-3.2,10.64,10.64,0,0,0,1.83,3.77c1.71,2.18,10.42,3.79,10.42,3.79Z" style="fill: rgb(242, 143, 143); transform-origin: 221.545px 173.39px;" id="elvtq124za0ih" class="animable"></path><path d="M227.86,159.53a1.34,1.34,0,1,1-2.68,0,1.35,1.35,0,0,1,1.34-1.38A1.36,1.36,0,0,1,227.86,159.53Z" style="fill: rgb(38, 50, 56); transform-origin: 226.52px 159.51px;" id="el2f6nwn3cj8d" class="animable"></path><path d="M226.44,154.48l-2.87,1.58a1.72,1.72,0,0,1,.67-2.28A1.59,1.59,0,0,1,226.44,154.48Z" style="fill: rgb(38, 50, 56); transform-origin: 224.909px 154.821px;" id="elvx9uc6koav" class="animable"></path><path d="M227,168.48l3.06,1.15a1.61,1.61,0,0,1-2.08,1A1.72,1.72,0,0,1,227,168.48Z" style="fill: rgb(242, 143, 143); transform-origin: 228.484px 169.604px;" id="elt27s4q0eokk" class="animable"></path><path d="M239.1,155.59l-2.61-2a1.58,1.58,0,0,1,2.27-.35A1.74,1.74,0,0,1,239.1,155.59Z" style="fill: rgb(38, 50, 56); transform-origin: 237.951px 154.249px;" id="eld3z16n3oz6r" class="animable"></path><path d="M238.3,158.76a1.35,1.35,0,0,1-1.34,1.38,1.39,1.39,0,1,1,1.34-1.38Z" style="fill: rgb(38, 50, 56); transform-origin: 236.91px 158.751px;" id="elu9ipaiwfqjo" class="animable"></path><polygon points="232.69 158.99 231.43 166.95 235.84 166.43 232.69 158.99" style="fill: rgb(242, 143, 143); transform-origin: 233.635px 162.97px;" id="elxdrmlclk3u" class="animable"></polygon><polygon points="338.26 238.38 394.21 316.69 392.43 318.51 338.26 242.5 338.26 238.38" style="fill: rgb(38, 50, 56); transform-origin: 366.235px 278.445px;" id="eloe1xldymuy" class="animable"></polygon><path d="M301.36,175c4.84,0,7.56,4.18,10.67,11.21s18.44,44,20.32,45.12,4.13,1.19,6.3,3.25c3.41,3.23,5.77,3.49,4,4.53s-4.36-.73-4.36-.73,4.3,5.23,3.93,6.47c-1.51,5-12.62,2.23-14.33,0-2.78-3.64-3.22-9.07-4.6-10.71s-21.2-40.89-21.2-40.89Z" style="fill: rgb(177, 102, 104); transform-origin: 322.307px 211.327px;" id="elc1rso9iwhau" class="animable"></path><path d="M338.26,238.38c-3.15-3.43-7.78-3.43-9.95,0C328.31,238.38,332.48,234.93,338.26,238.38Z" style="fill: rgb(154, 74, 77); transform-origin: 333.285px 237.094px;" id="elknpeku0i72i" class="animable"></path><path d="M327.32,221.56c.42.93-3.35,13.9-3.35,13.9a4.59,4.59,0,0,1-1.88-3.29l3.7-14A4.92,4.92,0,0,1,327.32,221.56Z" style="fill: rgb(38, 50, 56); transform-origin: 324.721px 226.815px;" id="elcvi6uac6kqb" class="animable"></path><path d="M328.31,238.38l-3.67-5.26-.67,2.34,4,5.58A6.37,6.37,0,0,1,328.31,238.38Z" style="fill: rgb(38, 50, 56); transform-origin: 326.14px 237.08px;" id="elp9kcu0ausi" class="animable"></path><path d="M303.93,211.46H278.66a6.79,6.79,0,0,1-6.79-6.79V150.9a19.43,19.43,0,0,1,19.43-19.43h0a19.42,19.42,0,0,1,19.42,19.43v53.77A6.79,6.79,0,0,1,303.93,211.46Z" style="fill: rgb(38, 50, 56); transform-origin: 291.295px 171.465px;" id="eloysqvap81lc" class="animable"></path><path d="M247,323c-1.54-.78-2.51,1.16-3.9,2.72-1,1.1-2.5,2.83-2.72,4.08-.33,1.85,1.33,4.76,3.18,6.36s4,2.75,4.65,6.27,2,5.6,5.68,7.17c4,1.72,9.34,1.17,11.15,0,2.15-1.39.19-2.91-2.82-7.22-3.93-5.62-7-9.64-7-14.88Z" style="fill: rgb(38, 50, 56); transform-origin: 253.143px 336.758px;" id="el7mm594jctua" class="animable"></path><path d="M250.14,318.42l-3.23,4.73a4.54,4.54,0,0,0,1.09,6.3l.1.06a4.87,4.87,0,0,0,6.18-1l5-5.49Z" style="fill: rgb(242, 143, 143); transform-origin: 252.686px 324.309px;" id="elumj6h6k2bdl" class="animable"></path><path d="M308.14,228.66c.2,6,1.27,28-3.13,39.53A108.48,108.48,0,0,1,295.86,287c-1.31,2.24-39.06,39-39.06,39s-6.41-.47-7.42-6.68c0,0,15.46-26.3,18.81-31.69S283.4,274,283.4,274l-1.08-50.55Z" style="fill: #F58F00; transform-origin: 278.889px 274.725px;" id="elb4la2x1wkhc" class="animable"></path><g id="elor5z9u1ezp"><path d="M308.14,228.66c.2,6,1.27,28-3.13,39.53A108.48,108.48,0,0,1,295.86,287c-1.31,2.24-39.06,39-39.06,39s-6.41-.47-7.42-6.68c0,0,15.46-26.3,18.81-31.69S283.4,274,283.4,274l-1.08-50.55Z" style="opacity: 0.2; transform-origin: 278.889px 274.725px;" class="animable" id="el9jnuy3a6lv"></path></g><g id="el3sirqivwqnq"><rect x="299.65" y="341.87" width="8.18" height="11.92" style="fill: rgb(242, 143, 143); transform-origin: 303.74px 347.83px; transform: rotate(167.19deg);" class="animable" id="elt3gtumeaxz7"></rect></g><path d="M294.84,247.06a50.38,50.38,0,0,0,7.29-8.41c6.1-8.42,5.16-15.91,5.16-15.91H304.8l-33,.68c-3.28,5.36-4,13.49-2.88,21.42,2.29,16.44,15.91,44.9,15.91,44.9-.19,2.25-1.14,11.71,1,20.09,3.38,13.22,12.6,35.59,12.6,35.59s5.78.83,8.65-2.52c0,0-5.11-45.42-6.48-57.06C299.11,273.25,294.84,247.06,294.84,247.06Z" style="fill: #F58F00; transform-origin: 287.885px 284.126px;" id="elhwx5v6zjzng" class="animable"></path><g id="el0udfo7tpszv"><path d="M294.84,247.06a50.38,50.38,0,0,0,7.29-8.41c6.1-8.42,5.16-15.91,5.16-15.91H304.8l-33,.68c-3.28,5.36-4,13.49-2.88,21.42,2.29,16.44,15.91,44.9,15.91,44.9-.19,2.25-1.14,11.71,1,20.09,3.38,13.22,12.6,35.59,12.6,35.59s5.78.83,8.65-2.52c0,0-5.11-45.42-6.48-57.06C299.11,273.25,294.84,247.06,294.84,247.06Z" style="opacity: 0.2; transform-origin: 287.885px 284.126px;" class="animable" id="eli34ms7xv5rj"></path></g><path d="M273.53,198.65c.34-.58,10.58-14.94.05-22.34,5.59,3,5.88,7.06,5.88,11.05C279.46,191.06,277.93,194.17,273.53,198.65Z" style="fill: rgb(242, 143, 143); transform-origin: 276.495px 187.48px;" id="elmghqkq8virh" class="animable"></path><path d="M308.16,348.79l-.26-1.14c.84.16,4.42,6.11,8,8.69,3.89,2.83,7.27,4.51,9,5.78,2.32,1.71-1,5.21-6.77,5.52-2.84.15-8-.71-9.61-2.23s-2.75-4-4-5.1-3.83-2-4.69-3.44c-.48-.76-.55-2.66-.5-4.29s.1-3.14.61-3.12l.2.87A9.86,9.86,0,0,0,305,351.4C306.32,351.34,308.83,351,308.16,348.79Z" style="fill: rgb(38, 50, 56); transform-origin: 312.481px 357.653px;" id="el9lw469b7ll" class="animable"></path><path d="M299.59,278.13s-3.85-27.33-4.75-31.07c0,0,6.78-2.58,8.86-4.95,0,0-1.49,3.31-6.34,6.25Z" style="fill: #F58F00; transform-origin: 299.27px 260.12px;" id="el9jsunvdrz2g" class="animable"></path><g id="el0ga8lum0gc8k"><path d="M299.59,278.13s-3.85-27.33-4.75-31.07c0,0,6.78-2.58,8.86-4.95,0,0-1.49,3.31-6.34,6.25Z" style="opacity: 0.4; transform-origin: 299.27px 260.12px;" class="animable" id="el5wbw1swy2zp"></path></g><path d="M279.09,277.33s4.09,10.17,5.73,12.41c0,0-.41,7.75-.35,9.32l-2.15,1.87s-.1-6.51,1-10.45" style="fill: #F58F00; transform-origin: 281.955px 289.13px;" id="el9ojkvo0r5dm" class="animable"></path><g id="elhggea06e556"><path d="M279.09,277.33s4.09,10.17,5.73,12.41c0,0-.41,7.75-.35,9.32l-2.15,1.87s-.1-6.51,1-10.45" style="opacity: 0.4; transform-origin: 281.955px 289.13px;" class="animable" id="ello4ss72i4g"></path></g><path d="M306.29,204.2c.52,4.78,1.85,24.46,1.85,24.46-15.79,8.43-35.38,2.84-38.38-.63a33.56,33.56,0,0,1,8.87-15.09l-5.12-14.28s-.61-1.46-.59-1.47c.34-.59,7.48-8.63.7-21.41l9.21-.84,13.5-.39c2.94.16,5,.45,5,.45,1.89,1.76,4.86,6.6,6.78,11.53C309.38,189.71,310.72,194.78,306.29,204.2Z" style="fill: rgb(69, 90, 100); transform-origin: 289.551px 203.817px;" id="el6auzfa3wi19" class="animable"></path><path d="M303.79,139.93c2,1.22,4.58,6.38,4.33,17.2-.21,9.17-3.18,11.43-4.67,12.09s-4.37.25-7.17-.21v5.5s3.87,4.49,3.62,7-5.58,3.13-9.2.66-6.67-7.27-6.67-7.27l.06-12.66s-1.64,1.6-4.44-.84c-2.3-2-3.08-5.41-1.28-7.24a4,4,0,0,1,6.39,1.28s4.46.16,10.4-3.1A16.72,16.72,0,0,0,303.79,139.93Z" style="fill: rgb(177, 102, 104); transform-origin: 292.757px 161.834px;" id="el69661bi1k4b" class="animable"></path><path d="M297.88,154.82a1.16,1.16,0,0,1-1.09,1.25,1.2,1.2,0,0,1-.12-2.39A1.17,1.17,0,0,1,297.88,154.82Z" style="fill: rgb(38, 50, 56); transform-origin: 296.753px 154.875px;" id="el5vadh7h3213" class="animable"></path><path d="M298.19,162.6l2.68.85a1.37,1.37,0,0,1-1.74,1A1.47,1.47,0,0,1,298.19,162.6Z" style="fill: rgb(154, 74, 77); transform-origin: 299.494px 163.556px;" id="el20133ivx3lc" class="animable"></path><path d="M307.34,151.28,305,149.66a1.36,1.36,0,0,1,1.94-.39A1.48,1.48,0,0,1,307.34,151.28Z" style="fill: rgb(38, 50, 56); transform-origin: 306.286px 150.15px;" id="elnzkrmi2ap3g" class="animable"></path><path d="M306.8,154a1.15,1.15,0,1,1-2.3.11,1.15,1.15,0,1,1,2.3-.11Z" style="fill: rgb(38, 50, 56); transform-origin: 305.65px 154.055px;" id="el6uexi95k4or" class="animable"></path><polygon points="301.36 153.33 301.55 160.27 305.2 159.14 301.36 153.33" style="fill: rgb(154, 74, 77); transform-origin: 303.28px 156.8px;" id="elvn7di5ohqoh" class="animable"></polygon><path d="M296.28,169c-2.95-.39-9-2.13-10-4.53a6.21,6.21,0,0,0,2.12,3.06c1.81,1.55,7.84,3.3,7.84,3.3Z" style="fill: rgb(154, 74, 77); transform-origin: 291.28px 167.65px;" id="eluinpchr5qfc" class="animable"></path><polygon points="275.58 204.42 284.46 215.82 278.64 212.94 275.58 204.42" style="fill: rgb(55, 71, 79); transform-origin: 280.02px 210.12px;" id="elljvv24rblw" class="animable"></polygon><path d="M275,141.23l-4.5-2.42a2.49,2.49,0,0,1,3.41-1.13A2.69,2.69,0,0,1,275,141.23Z" style="fill: rgb(38, 50, 56); transform-origin: 272.892px 139.311px;" id="elgrpsb8njzx7" class="animable"></path><path d="M272.92,197.19S266.7,212,263.53,222c-2,6.38-4.83,14.57-4.46,20.18a4.09,4.09,0,0,0,1.25,2.66c1.9,1.87,2.48,3.49,3.76,5.6,1,1.66,2.05,2.25,1.79,2.65a2.23,2.23,0,0,1-3,.37,15.38,15.38,0,0,1-2.77-2.4,20.24,20.24,0,0,0,2,6.24c2.26,4.5-.91,5.91-4.4,5.55-4-.43-6.1-3.67-7.14-13a58.54,58.54,0,0,1,.13-10.86,193.25,193.25,0,0,1,4-23.18A230.72,230.72,0,0,1,265.24,182c1.84-4.4,4.51-5.73,8.38-6.24C280.88,189.05,272.92,197.19,272.92,197.19Z" style="fill: rgb(177, 102, 104); transform-origin: 263.522px 219.332px;" id="el1x3fkr4ek3g" class="animable"></path><path d="M260.12,251.05c-1.66-.43-3.3-1.44-3.95.26a7.62,7.62,0,0,0,1.39,6.66c1.48,1.55,5.64,2.67,6.63,1.8S263.09,251.82,260.12,251.05Z" style="fill: rgb(255, 168, 167); transform-origin: 260.179px 255.216px;" id="el95njwtqymfa" class="animable"></path><path d="M407.87,341.64c-.49,3.21-1.85,12.6-5.91,16.51-1.32,1.28-12.27,5.14-13.08,5.34,0,0,2.3,3.29,1.37,4.33-1.52,1.71-5,1.26-7.47-3-1.34-2.26,1.32-4.17,2.48-4.92,1.46-.94,5.6-3.8,7.83-5.31a3.85,3.85,0,0,0,1.94-3.51l-.21-5.36Z" style="fill: #F58F00; transform-origin: 395.141px 355.195px;" id="elh5s22gnwylt" class="animable"></path><g id="eln30b16yc5e8"><path d="M407.87,341.64c-.49,3.21-1.85,12.6-5.91,16.51-1.32,1.28-12.27,5.14-13.08,5.34,0,0,2.3,3.29,1.37,4.33-1.52,1.71-5,1.26-7.47-3-1.34-2.26,1.32-4.17,2.48-4.92,1.46-.94,5.6-3.8,7.83-5.31a3.85,3.85,0,0,0,1.94-3.51l-.21-5.36Z" style="opacity: 0.2; transform-origin: 395.141px 355.195px;" class="animable" id="el7f3qpny96ck"></path></g><path d="M410.21,301.47a8.52,8.52,0,0,1,6.92-.61,8.87,8.87,0,0,1,4.75,4.48,20.64,20.64,0,0,1,1.45,8.65c-.73,3.67-4.83,3.29-7.81,1S410.21,301.47,410.21,301.47Z" style="fill: #F58F00; transform-origin: 416.782px 308.563px;" id="ell1x0xf87bu" class="animable"></path><g id="ellfuqdfn5uoe"><path d="M410.21,301.47a8.52,8.52,0,0,1,6.92-.61,8.87,8.87,0,0,1,4.75,4.48,20.64,20.64,0,0,1,1.45,8.65c-.73,3.67-4.83,3.29-7.81,1S410.21,301.47,410.21,301.47Z" style="opacity: 0.2; transform-origin: 416.782px 308.563px;" class="animable" id="el7hvljzfocne"></path></g><path d="M369.91,343.8c-1.31,1.44-4.79,5.59-4.56,7.27a38.74,38.74,0,0,0,1.63,5.48s3,1.49,3.94,2.13.54,3.33-3.19,3.44-5.57-1.1-6.42-3.05c-.54-1.21-2-5.08-3-7.85a10.49,10.49,0,0,1-.27-6.32,21.8,21.8,0,0,1,2.16-5.64C361.83,337,369.91,343.8,369.91,343.8Z" style="fill: #F58F00; transform-origin: 364.514px 350.463px;" id="elwlat892woh" class="animable"></path><g id="elfyty9c4by9w"><path d="M369.91,343.8c-1.31,1.44-4.79,5.59-4.56,7.27a38.74,38.74,0,0,0,1.63,5.48s3,1.49,3.94,2.13.54,3.33-3.19,3.44-5.57-1.1-6.42-3.05c-.54-1.21-2-5.08-3-7.85a10.49,10.49,0,0,1-.27-6.32,21.8,21.8,0,0,1,2.16-5.64C361.83,337,369.91,343.8,369.91,343.8Z" style="opacity: 0.2; transform-origin: 364.514px 350.463px;" class="animable" id="el1g1zwem86zz"></path></g><path d="M343.74,360.18a2.16,2.16,0,0,1-.49-.22,5.33,5.33,0,0,1-2.1-3.36,23.93,23.93,0,0,1-.14-7c.19-3.21,7.9-9.82,8.89-12.87.18-16.41,6.92-20.56,12.32-22.5,9.15-3.28,14-.63,18.65,2,5.43,3.06,12.44,5,14.52-1.39,2-6.09,4.05-12,11.69-13.25,5.22-.82,10.31,1.43,12,5s1.43,9.68,2.52,12.15,3.8,4.33,3,6.25a8.29,8.29,0,0,1-1.21,2s0,0-.05,0a.12.12,0,0,1-.07.12c-.11.14-.23.25-.34.37a7,7,0,0,1-1.4,1.16,6.58,6.58,0,0,1-2.24.94,3.36,3.36,0,0,1-.61.14l-.69.09c-3.11.25-8.47-1.53-8.47-1.53-.16.59-.27,1.19-.38,1.76-1.38,6.84.09,11.87-3.18,16.19A15.56,15.56,0,0,1,390,352.48a101.49,101.49,0,0,1,2.39,10.67,69.88,69.88,0,0,1,1.24,10.57s6.25,2.37,5.37,5.25c-.27.88-2.9,1.51-6.75.9s-4.77-3.45-5-5.5a88.24,88.24,0,0,0-3.18-11.81l-.36-.94c-2.55-6.41-5.42-10.57-10.88-14.78-4.83-3.73-7.35-5.59-10.46-6.59a22.35,22.35,0,0,0-2.31,2.34c-.62.58-1.26,1.15-1.93,1.68a20.86,20.86,0,0,1-2.95,1.9c-.9.48-1.82.92-2.68,1.47-1.33.85-2.92,1.34-4.07,2.47a5.57,5.57,0,0,0-1.67,4.56c0,.67,0,1.33,0,2a5.29,5.29,0,0,1-.44,2.62A2.09,2.09,0,0,1,343.74,360.18Z" style="fill: #F58F00; transform-origin: 382.782px 340.767px;" id="eljhaniyjwioc" class="animable"></path><path d="M423.33,327l-.12.14c-.11.14-.23.25-.34.37a7.09,7.09,0,0,1-1.4,1.16,6.58,6.58,0,0,1-2.24.94,3.36,3.36,0,0,1-.61.14l-.69.09c-3.11.25-8.47-1.53-8.47-1.53a16.84,16.84,0,0,0-.38,1.76c-1.38,6.84.09,11.87-3.18,16.19A15.56,15.56,0,0,1,390,352.48c-1-8.05,8.28-10.6,11-17.22,2.05-5,2.13-9.88,3.75-11.51s5.64-1.2,8.55.86c2.45,1.72,5.28,3.16,7.16,1.95.71-.46,2.31.89,2.79.45C423.31,327,423.31,327,423.33,327Z" style="fill: #F58F00; transform-origin: 406.627px 337.785px;" id="elqujc9pb316" class="animable"></path><g id="elukvj605w7z"><path d="M423.33,327l-.12.14c-.11.14-.23.25-.34.37a7.09,7.09,0,0,1-1.4,1.16,6.58,6.58,0,0,1-2.24.94,3.36,3.36,0,0,1-.61.14l-.69.09c-3.11.25-8.47-1.53-8.47-1.53a16.84,16.84,0,0,0-.38,1.76c-1.38,6.84.09,11.87-3.18,16.19A15.56,15.56,0,0,1,390,352.48c-1-8.05,8.28-10.6,11-17.22,2.05-5,2.13-9.88,3.75-11.51s5.64-1.2,8.55.86c2.45,1.72,5.28,3.16,7.16,1.95.71-.46,2.31.89,2.79.45C423.31,327,423.31,327,423.33,327Z" style="fill: rgb(255, 255, 255); opacity: 0.5; transform-origin: 406.627px 337.785px;" class="animable" id="elkyc8kmjosz"></path></g><path d="M409.46,328.3c-3.35.18-14.57-3.71-14.37-12.64a5,5,0,0,0-2.66,2.85s1.45,10.7,16.41,12.86A2.65,2.65,0,0,0,409.46,328.3Z" style="fill: rgb(38, 50, 56); transform-origin: 401.067px 323.515px;" id="elprtw7665ajl" class="animable"></path><path d="M408.3,304.46a8.43,8.43,0,0,0-11-1.08c-3.8,2.47-4.07,6.11-4.12,8.38-.06,2.75,1.36,7.62,4.12,7.81s5.1-5,5.59-7.55A12.78,12.78,0,0,1,408.3,304.46Z" style="fill: #F58F00; transform-origin: 400.739px 310.7px;" id="elxqjkfmrmhar" class="animable"></path><g id="elyx8l9m90lg"><path d="M408.3,304.46a8.43,8.43,0,0,0-11-1.08c-3.8,2.47-4.07,6.11-4.12,8.38-.06,2.75,1.36,7.62,4.12,7.81s5.1-5,5.59-7.55A12.78,12.78,0,0,1,408.3,304.46Z" style="opacity: 0.2; transform-origin: 400.739px 310.7px;" class="animable" id="elxlv26gsydxa"></path></g><path d="M356.75,317.23c-1.48-3.38-.47-10.23,4.5-13.74s12.36-3.3,15.76,0c3.05,3,5,8.07,1.75,12.87s-7.87,3.37-7.59,1.18c.65-5-3.65-8.64-7.3-7.91s-4.31,5.77-4.31,5.77A16.38,16.38,0,0,0,356.75,317.23Z" style="fill: #F58F00; transform-origin: 368.282px 310.254px;" id="elwtzp5e3icjj" class="animable"></path><g id="elq47qvcq3gic"><path d="M356.75,317.23c-1.48-3.38-.47-10.23,4.5-13.74s12.36-3.3,15.76,0c3.05,3,5,8.07,1.75,12.87s-7.87,3.37-7.59,1.18c.65-5-3.65-8.64-7.3-7.91s-4.31,5.77-4.31,5.77A16.38,16.38,0,0,0,356.75,317.23Z" style="opacity: 0.2; transform-origin: 368.282px 310.254px;" class="animable" id="eln9xd712qnym"></path></g><path d="M422.64,327.43a4.67,4.67,0,0,1-3.64-1.89,2,2,0,0,1,1-2.74,7.23,7.23,0,0,1,3.69-.4,2.31,2.31,0,0,1,1.3,2.22C424.83,325,424,327.2,422.64,327.43Z" style="fill: rgb(38, 50, 56); transform-origin: 421.89px 324.874px;" id="elixgwho3g8zf" class="animable"></path><path d="M409.69,315.47a1.22,1.22,0,0,1,2.43,0,1.22,1.22,0,1,1-2.43,0Z" style="fill: rgb(38, 50, 56); transform-origin: 410.905px 315.58px;" id="elxkj7401ovn" class="animable"></path><circle cx="420.49" cy="314.41" r="1.1" style="fill: rgb(38, 50, 56); transform-origin: 420.49px 314.41px;" id="elqrm4wsebyi8" class="animable"></circle></g><defs>     <filter id="active" height="200%">         <feMorphology in="SourceAlpha" result="DILATED" operator="dilate" radius="2"></feMorphology>                <feFlood flood-color="#32DFEC" flood-opacity="1" result="PINK"></feFlood>        <feComposite in="PINK" in2="DILATED" operator="in" result="OUTLINE"></feComposite>        <feMerge>            <feMergeNode in="OUTLINE"></feMergeNode>            <feMergeNode in="SourceGraphic"></feMergeNode>        </feMerge>    </filter>    <filter id="hover" height="200%">        <feMorphology in="SourceAlpha" result="DILATED" operator="dilate" radius="2"></feMorphology>                <feFlood flood-color="#ff0000" flood-opacity="0.5" result="PINK"></feFlood>        <feComposite in="PINK" in2="DILATED" operator="in" result="OUTLINE"></feComposite>        <feMerge>            <feMergeNode in="OUTLINE"></feMergeNode>            <feMergeNode in="SourceGraphic"></feMergeNode>        </feMerge>            <feColorMatrix type="matrix" values="0   0   0   0   0                0   1   0   0   0                0   0   0   0   0                0   0   0   1   0 "></feColorMatrix>    </filter></defs></svg>